<?xml version="1.0" encoding="UTF-8"?>
<svg version="1.1" xmlns="http://www.w3.org/2000/svg" width="200" height="200">
<path d="M0 0 C15.84 0 31.68 0 48 0 C48.33 20.79 48.66 41.58 49 63 C55.36804933 55.8652504 55.36804933 55.8652504 61.5 48.5625 C62.1703125 47.73878906 62.840625 46.91507813 63.53125 46.06640625 C64.3459375 45.05449219 65.160625 44.04257813 66 43 C67.00353516 42.02353516 67.00353516 42.02353516 68.02734375 41.02734375 C75.3051475 33.37332554 75.13462543 25.81591264 75 15.875 C75.00810738 14.33070598 75.01979882 12.78642643 75.03515625 11.2421875 C75.07137082 7.49196765 75.03415552 3.75283744 75 0 C84.24 0 93.48 0 103 0 C103.25490113 5.73141326 103.47285397 11.44268876 103.60424805 17.17529297 C103.65906117 19.11738156 103.73374918 21.05902717 103.82983398 22.99951172 C104.34145316 33.60945374 104.59989773 41.81723088 97.39453125 50.1796875 C96.36562224 51.26509104 95.32949962 52.34372788 94.28442383 53.41357422 C93.53056396 54.26709473 92.7767041 55.12061523 92 56 C93.25470255 59.76410766 94.883837 60.7259086 98 63.125 C99.36125 64.18074219 99.36125 64.18074219 100.75 65.2578125 C101.4925 65.83273438 102.235 66.40765625 103 67 C104 68 104 68 104.12025452 69.82862854 C104.11803391 70.62582809 104.11581329 71.42302765 104.11352539 72.24438477 C104.11344986 73.14524307 104.11337433 74.04610138 104.11329651 74.97425842 C104.10813522 75.95341721 104.10297394 76.93257599 104.09765625 77.94140625 C104.09553383 79.43751686 104.09553383 79.43751686 104.09336853 80.96385193 C104.08775114 84.16343124 104.07519571 87.36294169 104.0625 90.5625 C104.05748724 92.72591045 104.05292395 94.88932199 104.04882812 97.05273438 C104.03862505 102.36853774 104.01905308 107.68419139 104 113 C94.43 113 84.86 113 75 113 C75 98.48 75 83.96 75 69 C66.09 69 57.18 69 48 69 C48 83.85 48 98.7 48 114 C21.93 114 -4.14 114 -31 114 C-31 81 -31 81 -23.5 71.875 C-19.28125 68.8046875 -19.28125 68.8046875 -17.1484375 67.44042969 C-12.86320453 64.56737576 -8.9275095 61.05252763 -5.39648438 57.29248047 C-4 56 -4 56 -2 56 C-2 66.23 -2 76.46 -2 87 C4.93 87 11.86 87 19 87 C19 67.86 19 48.72 19 29 C12.73 29 6.46 29 0 29 C0 19.43 0 9.86 0 0 Z " fill="#FAFAFA" transform="translate(60,45)"/>
<path d="M0 0 C0.66 0.33 1.32 0.66 2 1 C-3.28 6.28 -8.56 11.56 -14 17 C-14.33 16.01 -14.66 15.02 -15 14 C-10.05 9.38 -5.1 4.76 0 0 Z " fill="#CCCCCC" transform="translate(45,111)"/>
</svg>
